Coordinates
version=1
nRows=13
nColumns=34
inDegrees=yes

Units are S.I. units (second, meters, Newtons, ...)
If the header above contains a line with 'inDegrees', this indicates whether rotational values are in degrees (yes) or radians (no).

endheader
time	pelvis_tilt	pelvis_list	pelvis_rotation	pelvis_tx	pelvis_ty	pelvis_tz	hip_flexion_r	hip_adduction_r	hip_rotation_r	knee_angle_r	ankle_angle_r	subtalar_angle_r	mtp_angle_r	hip_flexion_l	hip_adduction_l	hip_rotation_l	knee_angle_l	ankle_angle_l	subtalar_angle_l	mtp_angle_l	lumbar_extension	lumbar_bending	lumbar_rotation	arm_flex_r	arm_add_r	arm_rot_r	elbow_flex_r	pro_sup_r	arm_flex_l	arm_add_l	arm_rot_l	elbow_flex_l	pro_sup_l
      0.55000000	     42.10114284	      4.80581216	    -30.27315430	      1.30592093	      1.00882001	     -0.33913320	    -17.58799533	    -38.65201573	    -25.91819627	     64.59753212	     29.10543244	      0.56654419	      0.00000000	    -30.00000025	     30.00000025	     16.91608472	      0.00000000	    -25.22096801	    -35.00000000	      0.00000000	    -85.50033153	    -17.84102800	    -21.15162112	     23.37628769	      4.46259162	     -9.81078616	     31.49819981	    119.74817918	     24.90403923	     -4.74873873	     -6.95526864	     26.75160010	    111.36445108
      0.56666670	     41.63703003	      4.80975576	    -30.75082379	      1.31365368	      1.01060279	     -0.33580922	    -17.09907916	    -38.30624284	    -25.27107701	     63.91828215	     26.55572074	     -3.41090176	      0.00000000	    -30.00000025	     30.00000025	     16.86645042	      0.00000000	    -24.60392220	    -35.00000000	      0.00000000	    -85.25230783	    -18.49319988	    -21.19769861	     23.41447314	      4.54628938	     -9.66559258	     31.27985653	    119.74817918	     25.24095546	     -5.04916595	     -5.70698171	     25.85932500	    111.67987082
      0.58333330	     41.15952386	      4.80287372	    -31.22377592	      1.32111206	      1.01200937	     -0.33303715	    -16.70566253	    -37.90147580	    -24.73024472	     62.99678701	     24.68582806	     -6.81910921	      0.00000000	    -30.00000025	     30.00000025	     16.68761314	      0.00000000	    -23.99650008	    -35.00000000	      0.00000000	    -84.97033281	    -19.07035628	    -21.20883751	     23.36537506	      4.57605222	     -9.45606086	     31.08746254	    119.74817918	     25.57517729	     -5.29880794	     -4.27571297	     25.16520459	    111.92493269
      0.60000000	     40.67907032	      4.87753102	    -31.49647642	      1.32802861	      1.01206534	     -0.33114057	    -16.44548032	    -37.74001284	    -24.83753179	     62.26726853	     24.88314035	     -7.27950002	      0.00000000	    -30.00000025	     30.00000025	     16.68370792	      0.00000000	    -23.29151089	    -35.00000000	      0.00000000	    -84.56869162	    -19.35411507	    -21.35126523	     23.23335753	      4.63106651	     -9.42146577	     31.12032864	    119.74817918	     25.64401088	     -5.36400922	     -4.12140489	     25.14865264	    111.94195824
      0.61666670	     40.31055253	      4.83203654	    -31.89883527	      1.33371990	      1.01155129	     -0.32861776	    -15.84980684	    -37.22666302	    -23.91629802	     61.57171003	     23.13226794	    -10.45179464	      0.00000000	    -30.00000025	     30.00000025	     16.52226037	      0.00000000	    -22.54272989	    -35.00000000	      0.00000000	    -84.38108129	    -19.61412095	    -21.44502735	     23.28097867	      4.61217554	     -8.96159177	     31.24791108	    119.74817918	     26.13329351	     -5.75082771	     -1.89187476	     24.73058500	    112.24829676
      0.63333330	     39.91674853	      4.98178448	    -31.97799369	      1.34064712	      1.01245563	     -0.32530417	    -15.45434200	    -37.00951931	    -23.90456634	     60.85609143	     23.15893983	    -10.42762950	      0.00000000	    -30.00000025	     30.00000025	     16.53065635	      0.00000000	    -22.32305541	    -35.00000000	      0.00000000	    -84.08171173	    -19.63921981	    -21.58974835	     23.24024540	      4.61893699	     -8.95818157	     31.24882413	    119.74817918	     26.47974869	     -5.75242627	     -1.85922783	     24.85261512	    112.24635180
      0.65000000	     39.54753123	      5.04208782	    -32.23653705	      1.34818992	      1.01473768	     -0.32073100	    -14.80338631	    -36.73974448	    -23.51961406	     60.21497281	     23.32748172	    -10.34165071	      0.00000000	    -30.00000025	     30.00000025	     16.51932102	      0.00000000	    -21.40244324	    -35.00000000	      0.00000000	    -83.93757069	    -19.93990561	    -21.71171057	     23.10015362	      4.66235174	     -8.93278504	     31.19942362	    119.74817918	     26.96619913	     -5.83602761	     -1.62457025	     25.05978017	    112.26856781
      0.66666670	     39.20966571	      4.94331556	    -32.70789593	      1.35520508	      1.01626009	     -0.31617915	    -13.79596586	    -36.35858859	    -22.55974940	     59.44983942	     24.67454234	     -9.87155337	      0.00000000	    -30.00000025	     30.00000025	     16.05320541	      0.00000000	    -20.87267759	    -35.00000000	      0.00000000	    -83.86011221	    -20.22937256	    -21.64159084	     23.13195075	      4.57262326	     -8.92051841	     31.10770689	    119.74817918	     27.48622656	     -5.83715427	     -1.19517897	     25.44707145	    112.32184072
      0.68333330	     38.81612402	      4.94553650	    -32.93033824	      1.36207231	      1.01560325	     -0.31257829	    -12.83212711	    -36.74675788	    -23.16348424	     59.22632277	     31.58424148	     -2.04230408	      0.00000000	    -30.00000025	     30.00000025	     15.85829294	      0.00000000	    -20.39440976	    -35.00000000	      0.00000000	    -83.61019280	    -20.33324973	    -21.30544177	     22.88643738	      4.27204841	     -8.88936185	     31.06993794	    119.74817918	     27.89318351	     -5.93601565	      0.74643936	     26.42888917	    112.55400666
      0.70000000	     38.51989234	      4.74779892	    -33.40549869	      1.36656593	      1.01457177	     -0.30970306	    -11.38452825	    -36.92808664	    -22.76638365	     59.15267055	     37.23723343	      3.33867382	      0.00000000	    -30.00000025	     30.00000025	     15.46699221	      0.00000000	    -19.63150788	    -35.00000000	      0.00000000	    -83.48399471	    -20.39721429	    -21.04697440	     22.99663821	      3.99779023	     -9.07017132	     31.12683631	    119.74817918	     28.39207853	     -5.81765763	      1.36818812	     27.23613069	    112.53861248
      0.71666670	     38.23550040	      4.59850922	    -33.82512967	      1.36984119	      1.01427078	     -0.30739591	    -10.04625710	    -36.98713421	    -22.32819118	     58.88666614	     41.40288298	      7.94570179	      0.00000000	    -30.00000025	     30.00000025	     15.37012083	      0.00000000	    -18.85148054	    -35.00000000	      0.00000000	    -83.18839244	    -20.61484920	    -20.79247580	     22.92210375	      3.90602645	     -9.22127835	     31.18685678	    119.74817918	     28.77088434	     -5.73887182	      1.71231138	     28.28241282	    112.53646709
      0.73333330	     37.99255004	      4.50811470	    -34.14240031	      1.37285948	      1.01395828	     -0.30606424	     -8.76615206	    -37.14159284	    -22.16872675	     58.73873121	     43.79360906	     11.37517791	      0.00000000	    -30.00000025	     30.00000025	     15.38445913	      0.00000000	    -18.25164262	    -35.00000000	      0.00000000	    -82.85076346	    -20.73800512	    -20.53437975	     22.86619959	      3.68829640	     -9.34186195	     31.27736147	    119.74817918	     29.17973071	     -5.66693984	      1.96268722	     29.62164392	    112.56615325
      0.75000000	     37.77620517	      4.37405618	    -34.51575780	      1.37713164	      1.01341967	     -0.30473218	     -7.34780660	    -37.13219971	    -21.58381623	     58.58674886	     44.07928872	     13.30472303	      0.00000000	    -30.00000025	     30.00000025	     15.32636641	      0.00000000	    -17.83003293	    -35.00000000	      0.00000000	    -82.55491209	    -20.91696953	    -20.27221659	     22.95268401	      3.47463457	     -9.39087589	     31.29959755	    119.74817918	     29.71400257	     -5.49564509	      2.11084979	     30.81937775	    112.60298420
